<svg width="1080" height="1080" viewBox="0 0 1080 1080" fill="none" xmlns="http://www.w3.org/2000/svg">
<path d="M887.4 265L922 171H1080V0H0V1080H1080V909.36H931L875.92 844.92L818.68 909.36H395.28V566.28H255.6L430.2 171H600.12L641.12 260.64V171H852.12L887.4 265ZM768.24 327.24L767.88 289.44L782.28 327.24L852.48 514.8H922.32L992.88 327.24L1006.56 289.8V514.8H1080V226.8H958L902.52 373L887.76 412.6L872.64 373L816.84 226.8H694.84V514.8H768.28V327.24H768.24ZM610.2 514.8H694.8L568.08 226.8H469.8L342.36 514.8H425.88L448.2 459.36H587.88L610.2 514.8ZM503.64 324.36L518.04 288.36L532.44 324.36L562.32 397.08H473.76L503.64 324.36ZM454.32 566.64V853.56H694.8V791.28H527.8V741.28H691.6V679.32H527.76V628.92H694.76V566.64H454.32ZM962.32 853.56H1057.72L923 709.56L1057.64 566.64H963.64L877 659.88L790.6 566.64H694.8L829.08 710.64L694.8 853.56H787.68L875.16 760L962.28 853.6L962.32 853.56ZM998.64 709.2L1080 792V627.48L998.64 709.2Z" fill="#006FCF"/>
</svg>
