<svg width="25" height="24" viewBox="0 0 25 24" fill="none" xmlns="http://www.w3.org/2000/svg">
<path d="M24.2425 16.6724L16.4653 23.5905C15.4856 24.4647 13.8126 23.8467 13.8126 22.6108V20.2897H5.99015C5.22147 20.2897 4.60352 19.717 4.60352 19.0237V12.4522L8.80864 16.1901C9.78833 17.0643 11.4613 16.4463 11.4613 15.1953V12.8893H19.2838C20.0525 12.8893 20.6704 12.3316 20.6704 11.6232V11.5027L24.2425 14.6829C24.8454 15.2255 24.8454 16.1147 24.2425 16.6423V16.6724Z" fill="#FF9400"/>
<path d="M20.6704 11.5327V11.6533C20.6704 12.3617 20.0525 12.9194 19.2838 12.9194H11.4613V15.2254C11.4613 16.4764 9.78833 17.0944 8.80864 16.2202L4.60352 12.4823V12.3768C4.60352 11.6684 5.22147 11.1107 5.99015 11.1107H13.8126V8.80469C13.8126 7.5537 15.4856 6.93574 16.4653 7.80992L20.6704 11.5478V11.5327Z" fill="#FF5805"/>
<path d="M20.6708 4.96131V11.5328L16.4656 7.79487C15.4859 6.92069 13.8129 7.53865 13.8129 8.78963V11.0957H5.99049C5.22181 11.0957 4.60385 11.6684 4.60385 12.3617V12.4672L1.03175 9.28701C0.428868 8.74442 0.428868 7.85516 1.03175 7.32764L8.80898 0.409523C9.78867 -0.464661 11.4617 0.153296 11.4617 1.38921V3.71032H19.2841C20.0528 3.71032 20.6708 4.26799 20.6708 4.97638V4.96131Z" fill="#2A3362"/>
</svg>
