<svg width="25" height="24" viewBox="0 0 25 24" fill="none" xmlns="http://www.w3.org/2000/svg">
<path d="M22.7021 7.71991V8.56017C22.7021 9.2954 22.162 9.88059 21.4717 9.88059H21.3667C21.3667 9.10034 20.7665 8.47015 20.0313 8.47015C19.2961 8.47015 18.6959 9.10034 18.6959 9.88059H16.025C16.025 9.10034 15.4249 8.47015 14.6896 8.47015C13.9544 8.47015 13.3542 9.10034 13.3542 9.88059H10.6834C10.6834 9.10034 10.0832 8.47015 9.34795 8.47015C8.61272 8.47015 8.01253 9.10034 8.01253 9.88059H5.3417C5.3417 9.10034 4.74151 8.47015 4.00628 8.47015C3.27105 8.47015 2.67087 9.10034 2.67087 9.88059H2.56583C1.89062 9.88059 1.33545 9.2804 1.33545 8.56017V7.71991C1.33545 7.26977 1.54552 6.84964 1.90563 6.60957L11.3586 0.202563C11.7637 -0.0675211 12.2739 -0.0675211 12.664 0.202563L22.1169 6.60957C22.4771 6.84964 22.6871 7.26977 22.6871 7.71991H22.7021Z" fill="#2A3362"/>
<path d="M24.0375 24H0C0 23.1597 0.585183 22.4845 1.33542 22.3344V21.4942C1.33542 20.6539 1.9056 19.9487 2.67083 19.7987C2.67083 20.5639 3.28603 21.1791 4.00625 21.1791C4.72648 21.1791 5.34167 20.5489 5.34167 19.7686H8.0125C8.0125 20.5489 8.61269 21.1791 9.34792 21.1791C10.0832 21.1791 10.6833 20.5489 10.6833 19.7686H13.3542C13.3542 20.5489 13.9544 21.1791 14.6896 21.1791C15.4248 21.1791 16.025 20.5489 16.025 19.7686H18.6958C18.6958 20.5489 19.296 21.1791 20.0313 21.1791C20.7665 21.1791 21.3517 20.5639 21.3667 19.7987C22.1319 19.9487 22.7021 20.6539 22.7021 21.4942V22.3344C23.4523 22.4845 24.0375 23.1597 24.0375 24Z" fill="#2A3362"/>
<path d="M12.0185 5.64925C12.7561 5.64925 13.3539 5.01777 13.3539 4.23881C13.3539 3.45984 12.7561 2.82837 12.0185 2.82837C11.281 2.82837 10.6831 3.45984 10.6831 4.23881C10.6831 5.01777 11.281 5.64925 12.0185 5.64925Z" fill="#2D375E"/>
<path d="M5.3413 19.7687H2.97056C2.86553 19.7687 2.7755 19.7687 2.67047 19.7987V19.7687C2.4454 16.3326 2.41539 13.0166 2.67047 9.88058H5.3413C5.56637 13.0166 5.55137 16.3326 5.3413 19.7687Z" fill="#FF9400"/>
<path d="M10.6831 19.7687H8.01226C7.78719 16.3326 7.75718 13.0166 8.01226 9.88058H10.6831C10.9082 13.0166 10.8932 16.3326 10.6831 19.7687Z" fill="#FF9400"/>
<path d="M16.0244 19.7687H13.3536C13.1285 16.3326 13.0985 13.0166 13.3536 9.88058H16.0244C16.2495 13.0166 16.2345 16.3326 16.0244 19.7687Z" fill="#FF9400"/>
<path d="M4.00534 8.47012C3.27011 8.47012 2.66992 9.10032 2.66992 9.88056H5.34076C5.34076 9.10032 4.74057 8.47012 4.00534 8.47012Z" fill="#FF5805"/>
<path d="M2.66992 19.7987C2.66992 20.5639 3.28511 21.1791 4.00534 21.1791C4.72556 21.1791 5.34076 20.5489 5.34076 19.7686H2.97002C2.86498 19.7686 2.77495 19.7686 2.66992 19.7987Z" fill="#FF5805"/>
<path d="M9.34714 8.47012C8.61191 8.47012 8.01172 9.10032 8.01172 9.88056H10.6826C10.6826 9.10032 10.0824 8.47012 9.34714 8.47012Z" fill="#FF5805"/>
<path d="M9.34714 21.1791C10.0824 21.1791 10.6826 20.5489 10.6826 19.7686H8.01172C8.01172 20.5489 8.61191 21.1791 9.34714 21.1791Z" fill="#FF5805"/>
<path d="M14.6884 8.47012C13.9532 8.47012 13.353 9.10032 13.353 9.88056H16.0239C16.0239 9.10032 15.4237 8.47012 14.6884 8.47012Z" fill="#FF5805"/>
<path d="M14.6884 21.1791C15.4237 21.1791 16.0239 20.5489 16.0239 19.7686H13.353C13.353 20.5489 13.9532 21.1791 14.6884 21.1791Z" fill="#FF5805"/>
<path d="M20.0302 8.47012C19.295 8.47012 18.6948 9.10032 18.6948 9.88056H21.3657C21.3657 9.10032 20.7655 8.47012 20.0302 8.47012Z" fill="#FF5805"/>
<path d="M18.6948 19.7686C18.6948 20.5489 19.295 21.1791 20.0302 21.1791C20.7655 21.1791 21.3507 20.5639 21.3657 19.7987C21.2756 19.7987 21.1856 19.7686 21.0656 19.7686H18.6948Z" fill="#FF5805"/>
<path d="M21.3672 19.7687V19.7987C21.2771 19.7987 21.1871 19.7687 21.0671 19.7687H18.6963C18.4713 16.3326 18.4413 13.0166 18.6963 9.88058H21.3672C21.5922 13.0166 21.5772 16.3326 21.3672 19.7687Z" fill="#FF9400"/>
</svg>
