<svg width="35" height="35" viewBox="0 0 35 35" fill="none" xmlns="http://www.w3.org/2000/svg">
<path opacity="0.5" d="M21.8226 26.7591C19.9213 26.7594 18.0626 26.1959 16.4816 25.1398C14.9005 24.0837 13.6682 22.5825 12.9403 20.8261C12.2125 19.0696 12.0218 17.1367 12.3924 15.2719C12.7631 13.4071 13.6784 11.6941 15.0226 10.3494C16.3669 9.0048 18.0796 8.08898 19.9443 7.71777C21.8091 7.34657 23.742 7.53666 25.4987 8.26399C27.2554 8.99133 28.7569 10.2233 29.8135 11.804C30.87 13.3847 31.4341 15.2432 31.4344 17.1445V17.146C31.4317 19.6945 30.4182 22.1379 28.6163 23.9401C26.8144 25.7423 24.3711 26.7561 21.8226 26.7591V26.7591Z" fill="#FFB600"/>
<path d="M12.4696 26.7591C10.5683 26.7591 8.70971 26.1953 7.12883 25.139C5.54795 24.0827 4.31581 22.5813 3.58821 20.8248C2.86061 19.0682 2.67024 17.1353 3.04116 15.2705C3.41209 13.4057 4.32766 11.6928 5.67208 10.3484C7.01651 9.00399 8.72941 8.08842 10.5942 7.71749C12.459 7.34657 14.3919 7.53694 16.1484 8.26454C17.905 8.99214 19.4064 10.2243 20.4627 11.8052C21.519 13.386 22.0828 15.2446 22.0828 17.146C22.0802 19.6947 21.0665 22.1383 19.2642 23.9406C17.462 25.7428 15.0184 26.7565 12.4696 26.7591Z" fill="#FF5C5C" fill-opacity="0.6"/>
</svg>
