<svg width="14" height="26" viewBox="0 0 14 26" fill="none" xmlns="http://www.w3.org/2000/svg">
<path d="M2.17041 0.5H11.4465C12.6313 0.5 13.5793 1.39063 13.5793 2.46875V19.7969C13.5793 21.2188 12.3267 22.375 10.7863 22.375H2.54281C1.15478 22.375 0.0375977 21.3438 0.0375977 20.0625V2.46875C0.0375977 1.375 1.00244 0.5 2.17041 0.5Z" fill="#2D375E"/>
<path d="M10.5972 3.625H2.94092C2.4663 3.625 2.08154 4.00976 2.08154 4.48438V5.89062C2.08154 6.36524 2.4663 6.75 2.94092 6.75H10.5972C11.0718 6.75 11.4565 6.36524 11.4565 5.89062V4.48438C11.4565 4.00976 11.0718 3.625 10.5972 3.625Z" fill="#FF9400"/>
<path d="M9.36816 16.125H5.21191C4.63374 16.125 4.16504 16.5937 4.16504 17.1719V24.4531C4.16504 25.0313 4.63374 25.5 5.21191 25.5H9.36816C9.94634 25.5 10.415 25.0313 10.415 24.4531V17.1719C10.415 16.5937 9.94634 16.125 9.36816 16.125Z" fill="#FF9400"/>
<path d="M9.36816 16.125H5.21191C4.63379 16.125 4.16504 16.5938 4.16504 17.1719V22.375H10.415V17.1719C10.415 16.5938 9.94629 16.125 9.36816 16.125Z" fill="#FF5805"/>
<path d="M8.33187 22.375H6.24854V25.5H8.33187V22.375Z" fill="#2D375E"/>
</svg>
