<svg width="16" height="28" viewBox="0 0 16 28" fill="none" xmlns="http://www.w3.org/2000/svg">
<path d="M15.6764 2.1525V25.8475C15.6764 27.0375 14.7214 28 13.5416 28H2.8487C1.66892 28 0.713867 27.0375 0.713867 25.8475V2.1525C0.713867 0.9625 1.66892 0 2.8487 0H13.5416C14.7214 0 15.6764 0.9625 15.6764 2.1525Z" fill="#2D375E"/>
<path d="M4.98322 2.15247V13.195C4.98322 15.4175 3.18547 17.22 0.975723 17.22H0.694824V2.15247H4.98322Z" fill="#FF5805"/>
<path d="M15.6764 23.695V25.8475C15.6764 27.0375 14.7214 28 13.5416 28H2.8487C1.66892 28 0.713867 27.0375 0.713867 25.8475V23.695H15.6952H15.6764Z" fill="#FF9400"/>
<path d="M15.6761 2.1525H0.694824C0.694824 0.9625 1.64988 0 2.82966 0H13.5226C14.7023 0 15.6574 0.9625 15.6574 2.1525H15.6761Z" fill="#FF9400"/>
<path d="M9.25359 26.39H7.11876C6.81913 26.39 6.57568 26.145 6.57568 25.8475C6.57568 25.55 6.81913 25.305 7.11876 25.305H9.25359C9.55322 25.305 9.79666 25.55 9.79666 25.8475C9.79666 26.145 9.55322 26.39 9.25359 26.39Z" fill="#2A3362"/>
</svg>
