<svg width="38" height="13" viewBox="0 0 38 13" fill="none" xmlns="http://www.w3.org/2000/svg">
<path d="M16.5381 12.7497H13.5166L15.405 1.14405H18.4269L16.5381 12.7497ZM10.9746 1.14405L8.09403 9.12653L7.75316 7.40759L7.75347 7.40821L6.73677 2.18901C6.73677 2.18901 6.61383 1.14405 5.30345 1.14405H0.541232L0.485352 1.34056C0.485352 1.34056 1.94165 1.64356 3.64598 2.6671L6.2711 12.75H9.41932L14.2265 1.14405H10.9746V1.14405ZM34.7407 12.7497H37.5151L35.0962 1.14374H32.6672C31.5456 1.14374 31.2724 2.00864 31.2724 2.00864L26.766 12.7497H29.9158L30.5457 11.0258H34.3868L34.7407 12.7497ZM31.4158 8.64441L33.0035 4.30128L33.8966 8.64441H31.4158ZM27.0023 3.93495L27.4335 1.4427C27.4335 1.4427 26.1029 0.936676 24.7158 0.936676C23.2164 0.936676 19.6556 1.59203 19.6556 4.77874C19.6556 7.77702 23.8348 7.81428 23.8348 9.38916C23.8348 10.9641 20.0862 10.6819 18.8491 9.68874L18.3999 12.2946C18.3999 12.2946 19.749 12.95 21.8104 12.95C23.8724 12.95 26.983 11.8823 26.983 8.97658C26.983 5.95906 22.7663 5.6781 22.7663 4.36616C22.7666 3.05391 25.7093 3.22248 27.0023 3.93495V3.93495Z" fill="#2566AF"/>
</svg>
