<svg width="25" height="24" viewBox="0 0 25 24" fill="none" xmlns="http://www.w3.org/2000/svg">
<path d="M9.36909 0H2.0791C1.25067 0 0.579102 0.671572 0.579102 1.5V8.78999C0.579102 9.61842 1.25067 10.29 2.0791 10.29H9.36909C10.1975 10.29 10.8691 9.61842 10.8691 8.78999V1.5C10.8691 0.671572 10.1975 0 9.36909 0Z" fill="#2A3362"/>
<path d="M6.65416 3.435H4.80916C4.37009 3.435 4.01416 3.79093 4.01416 4.23V6.075C4.01416 6.51406 4.37009 6.86999 4.80916 6.86999H6.65416C7.09322 6.86999 7.44916 6.51406 7.44916 6.075V4.23C7.44916 3.79093 7.09322 3.435 6.65416 3.435Z" fill="#FF9400"/>
<path d="M9.36909 13.71H2.0791C1.25067 13.71 0.579102 14.3816 0.579102 15.21V22.5C0.579102 23.3284 1.25067 24 2.0791 24H9.36909C10.1975 24 10.8691 23.3284 10.8691 22.5V15.21C10.8691 14.3816 10.1975 13.71 9.36909 13.71Z" fill="#2A3362"/>
<path d="M6.65416 17.145H4.80916C4.37009 17.145 4.01416 17.5009 4.01416 17.94V19.785C4.01416 20.224 4.37009 20.58 4.80916 20.58H6.65416C7.09322 20.58 7.44916 20.224 7.44916 19.785V17.94C7.44916 17.5009 7.09322 17.145 6.65416 17.145Z" fill="#FF9400"/>
<path d="M23.0795 0H15.7895C14.9611 0 14.2896 0.671572 14.2896 1.5V8.78999C14.2896 9.61842 14.9611 10.29 15.7895 10.29H23.0795C23.908 10.29 24.5795 9.61842 24.5795 8.78999V1.5C24.5795 0.671572 23.908 0 23.0795 0Z" fill="#2A3362"/>
<path d="M20.3646 3.435H18.5196C18.0805 3.435 17.7246 3.79093 17.7246 4.23V6.075C17.7246 6.51406 18.0805 6.86999 18.5196 6.86999H20.3646C20.8037 6.86999 21.1596 6.51406 21.1596 6.075V4.23C21.1596 3.79093 20.8037 3.435 20.3646 3.435Z" fill="#FF9400"/>
<path d="M21.1437 15.09V17.145H19.0887C18.3387 17.145 17.7237 17.76 17.7237 18.51V20.565H15.6687C14.9187 20.565 14.3037 19.95 14.3037 19.2V15.09C14.3037 14.34 14.9187 13.725 15.6687 13.725H19.7787C20.5287 13.725 21.1437 14.34 21.1437 15.09Z" fill="#FF9400"/>
<path d="M21.1446 17.145V19.2C21.1446 19.95 20.5296 20.565 19.7796 20.565H17.7246V18.51C17.7246 17.76 18.3396 17.145 19.0896 17.145H21.1446Z" fill="#2A3362"/>
<path d="M24.5788 18.51V22.62C24.5788 23.37 23.9638 23.985 23.2138 23.985H19.1038C18.3538 23.985 17.7388 23.37 17.7388 22.62V20.565H19.7938C20.5438 20.565 21.1588 19.95 21.1588 19.2V17.145H23.2138C23.9638 17.145 24.5788 17.76 24.5788 18.51Z" fill="#FF5805"/>
</svg>
